<?xml version="1.0" encoding="UTF-8" standalone="no"?>
<!-- Created with Inkscape (http://www.inkscape.org/) -->

<svg
   xmlns:dc="http://purl.org/dc/elements/1.1/"
   xmlns:cc="http://creativecommons.org/ns#"
   xmlns:rdf="http://www.w3.org/1999/02/22-rdf-syntax-ns#"
   xmlns:svg="http://www.w3.org/2000/svg"
   xmlns="http://www.w3.org/2000/svg"
   xmlns:sodipodi="http://sodipodi.sourceforge.net/DTD/sodipodi-0.dtd"
   xmlns:inkscape="http://www.inkscape.org/namespaces/inkscape"
   width="210mm"
   height="297mm"
   id="svg2"
   version="1.1"
   inkscape:version="0.48.4 r9939"
   sodipodi:docname="face_negative.svg">
  <defs
     id="defs4" />
  <sodipodi:namedview
     id="base"
     pagecolor="#ffffff"
     bordercolor="#666666"
     borderopacity="1.0"
     inkscape:pageopacity="0.0"
     inkscape:pageshadow="2"
     inkscape:zoom="0.98994949"
     inkscape:cx="375"
     inkscape:cy="827.09251"
     inkscape:document-units="px"
     inkscape:current-layer="layer1"
     showgrid="false"
     inkscape:window-width="1280"
     inkscape:window-height="738"
     inkscape:window-x="-8"
     inkscape:window-y="-8"
     inkscape:window-maximized="1" />
  <metadata
     id="metadata7">
    <rdf:RDF>
      <cc:Work
         rdf:about="">
        <dc:format>image/svg+xml</dc:format>
        <dc:type
           rdf:resource="http://purl.org/dc/dcmitype/StillImage" />
        <dc:title></dc:title>
      </cc:Work>
    </rdf:RDF>
  </metadata>
  <g
     inkscape:label="レイヤー 1"
     inkscape:groupmode="layer"
     id="layer1">
    <path
       style="fill:none;stroke:#000000;stroke-width:2.2268765;stroke-linecap:butt;stroke-linejoin:miter;stroke-miterlimit:4;stroke-opacity:1;stroke-dasharray:none"
       d="M 235.44399,429.14331 C 159.43649,431.27296 86.335383,381.53329 53.307996,310.15978 20.973425,260.89438 20.093867,188.46376 58.435826,142.46928 89.195492,104.16654 116.74716,59.512547 161.49161,37.645688 c 21.62348,-12.645993 45.68915,-21.870081 70.83642,-20.655209 34.08778,0.513457 69.37515,7.38826 97.13466,29.570606 24.11941,17.769661 52.42276,33.490985 64.84684,63.345485 24.02708,44.75798 44.08079,95.14178 42.15321,147.42826 -4.38237,32.72689 -21.94933,61.18216 -36.49574,89.78303 -26.55319,45.69799 -73.50534,79.47241 -125.27081,81.15792 -13.05382,1.1169 -26.16607,1.15946 -39.2522,0.86753 z"
       id="path2985"
       inkscape:connector-curvature="0" />
    <path
       style="fill:none;stroke:#000000;stroke-width:1.02119732;stroke-linecap:butt;stroke-linejoin:miter;stroke-miterlimit:4;stroke-opacity:1;stroke-dasharray:none"
       d="m 351.46496,183.8889 c -11.18663,0.19282 -21.80456,-4.21819 -26.3592,-10.24107 -4.7642,-4.17016 -4.06035,-10.23751 1.54615,-14.00722 3.42084,-2.5355 6.58368,-5.26851 11.09408,-7.17507 4.56851,-2.11416 10.44953,-3.19235 16.21209,-2.72377 4.21969,0.1705 8.3608,1.03881 11.6628,2.63793 3.85616,1.41158 7.70415,3.16004 9.33115,5.78794 3.14572,3.71216 5.88117,7.81944 5.11894,12.06334 -1.76704,3.47384 -4.51027,6.85607 -8.57701,9.57345 -4.55723,2.85378 -11.22151,4.32637 -17.7778,4.09995 -0.75038,0.005 -1.50216,-0.002 -2.2512,-0.0154 z"
       id="path2985-1"
       inkscape:connector-curvature="0" />
    <path
       style="fill:#ffffff;stroke:#000000;stroke-width:1.00361204;stroke-linecap:butt;stroke-linejoin:miter;stroke-miterlimit:4;stroke-opacity:1;stroke-dasharray:none"
       d="m 121.12466,181.66092 c -10.82563,0.19814 -21.03009,-4.22077 -25.454187,-10.24308 -2.539678,-2.31186 -3.554873,-5.20192 -2.796115,-7.95566 0.210701,-2.62756 2.552456,-4.95836 5.386894,-6.8205 4.511568,-4.02879 10.591198,-7.92781 18.587678,-9.01825 3.81522,-0.4175 7.77893,-0.15482 11.51594,0.41102 2.87551,0.42591 5.14039,1.62035 7.53563,2.60178 3.23211,1.15668 6.1913,2.75635 7.58901,4.95517 3.21714,3.79429 6.01072,8.04173 5.25901,12.40892 -1.11638,2.63903 -3.27875,5.06201 -5.47611,7.40457 -3.83443,3.61701 -10.41841,6.20217 -17.51215,6.2085 -1.54216,0.0708 -3.09049,0.0784 -4.6356,0.0476 z"
       id="path2985-1-4"
       inkscape:connector-curvature="0" />
    <path
       style="fill:#aa0000;stroke:#000000;stroke-width:1.06652188px;stroke-linecap:butt;stroke-linejoin:miter;stroke-opacity:1"
       d="m 113.68591,269.86919 41.48467,-13.55563 61.00685,-7.13454 c 0,0 41.48467,-2.14036 46.36522,-2.14036 4.88054,0 75.6485,12.84217 81.34247,14.26908 5.69398,1.42691 36.60411,13.55563 36.60411,13.55563 l 43.92495,20.69018 -99.23782,8.56145 c 0,0 -64.26057,-4.99418 -69.14112,-4.99418 -4.88054,0 -64.26055,-2.14036 -68.32768,-2.14036 -4.06711,0 -40.67122,-2.85382 -40.67122,-2.85382 l -26.0296,-8.56146 z"
       id="path3053"
       inkscape:connector-curvature="0" />
    <path
       style="fill:#aa0000;stroke:#000000;stroke-width:1.06555319px;stroke-linecap:butt;stroke-linejoin:miter;stroke-opacity:1"
       d="m 69.361279,310.66411 23.54256,25.68861 69.004091,27.82935 c 0,0 24.35438,0.71357 30.84887,0.71357 6.49451,0 52.76783,7.13573 59.26234,4.28144 6.4945,-2.8543 58.45052,-9.27645 58.45052,-9.27645 l 38.96701,-15.6986 18.67169,-12.84431 10.55356,-18.5529 0,-3.56785 -69.81589,7.13572 -56.01508,2.14072 -65.75684,-5.70859 -58.45052,-2.14071 -46.273311,-6.42215 z"
       id="path3055"
       inkscape:connector-curvature="0" />
    <path
       style="fill:#000000;fill-opacity:1;stroke:#000000;stroke-width:0.30812299;stroke-linecap:butt;stroke-linejoin:miter;stroke-miterlimit:4;stroke-opacity:1;stroke-dasharray:none"
       d="m 361.98211,176.82557 c -1.35519,-0.10961 -2.82184,-0.23969 -3.8971,-1.09577 -0.92133,-0.43885 -1.57489,-1.21578 -2.06915,-2.03748 -0.46014,-0.63118 -0.90228,-1.27719 -1.25206,-1.96785 0.035,-0.88833 0.0989,-1.77538 0.1448,-2.66324 1.22749,-1.36053 2.21152,-2.97013 3.81126,-3.99632 0.75424,-0.32999 1.50849,-0.65997 2.26274,-0.98995 0.99951,0.0712 1.99903,0.14246 2.99855,0.2137 0.97389,0.56986 1.94778,1.13972 2.92167,1.70958 0.85179,1.34297 1.88732,2.69635 1.97298,4.30748 0.0856,0.41622 0.17114,0.83243 0.25671,1.24865 -0.71545,1.63796 -1.46834,3.42794 -3.12136,4.45013 -1.18737,0.71623 -2.64458,0.86313 -4.02904,0.82107 z"
       id="path2985-1-0"
       inkscape:connector-curvature="0" />
    <path
       style="fill:#000000;fill-opacity:1;stroke:#000000;stroke-width:0.30812299;stroke-linecap:butt;stroke-linejoin:miter;stroke-miterlimit:4;stroke-opacity:1;stroke-dasharray:none"
       d="m 112.59596,167.31578 c -1.35519,-0.10961 -2.82184,-0.23969 -3.8971,-1.09577 -0.92133,-0.43885 -1.57489,-1.21578 -2.06915,-2.03748 -0.46014,-0.63118 -0.90228,-1.27719 -1.25206,-1.96785 0.035,-0.88833 0.0989,-1.77538 0.1448,-2.66324 1.22749,-1.36053 2.21152,-2.97013 3.81126,-3.99632 0.75424,-0.32999 1.50849,-0.65997 2.26274,-0.98995 0.99951,0.0712 1.99903,0.14246 2.99855,0.2137 0.97389,0.56986 1.94778,1.13972 2.92167,1.70958 0.85179,1.34297 1.88732,2.69635 1.97298,4.30748 0.0856,0.41622 0.17114,0.83243 0.25671,1.24865 -0.71545,1.63796 -1.46834,3.42794 -3.12136,4.45013 -1.18737,0.71623 -2.64458,0.86313 -4.02904,0.82107 z"
       id="path2985-1-0-9"
       inkscape:connector-curvature="0" />
    <path
       style="fill:#241c1c;stroke:#000000;stroke-width:0.30935979px;stroke-linecap:butt;stroke-linejoin:miter;stroke-opacity:1"
       d="m 87.853365,125.53992 6.68914,-8.49181 11.778425,-8.27345 c 0,0 8.42054,-4.7333 9.44939,-5.20725 1.02884,-0.47395 17.89492,-3.11793 19.31167,-3.20106 1.41673,-0.0831 9.77238,0.9086 9.77238,0.9086 l 12.39777,2.54673 -19.62129,12.45587 c 0,0 -14.30395,4.59601 -15.33279,5.06996 -1.02885,0.47395 -13.8711,5.53564 -14.72847,5.9306 -0.85737,0.39495 -9.006545,3.00996 -9.006545,3.00996 l -6.78573,-0.29114 z"
       id="path3053-1"
       inkscape:connector-curvature="0" />
    <path
       style="fill:#241c1c;stroke:#000000;stroke-width:0.30935979px;stroke-linecap:butt;stroke-linejoin:miter;stroke-opacity:1"
       d="m 316.266,107.89907 9.62848,-2.76544 14.15953,0.57337 c 0,0 13.9142,4.47192 15.04696,4.72469 1.13276,0.25278 13.27211,5.4742 14.59367,6.28638 1.32155,0.81216 8.49572,6.80985 8.49572,6.80985 l 10.19486,9.77534 -23.03284,-2.03619 c 0,0 -14.91471,-5.13864 -16.04747,-5.39142 -1.13276,-0.25277 -14.91471,-4.10412 -15.85868,-4.31476 -0.94396,-0.21065 -9.43968,-3.141 -9.43968,-3.141 l -6.0414,-4.45174 z"
       id="path3053-1-7"
       inkscape:connector-curvature="0"
       sodipodi:nodetypes="cccsscccssccc" />
  </g>
</svg>
